<?xml version="1.0"?>
<svg width="16" height="16" xmlns="http://www.w3.org/2000/svg" xmlns:svg="http://www.w3.org/2000/svg" class="bi bi-lightbulb">

 <g class="layer">
  <title>Layer 1</title>
  <path d="m2,6a6,6 0 1 1 10.17,4.31c-0.2,0.2 -0.36,0.4 -0.45,0.62l-0.76,1.77a0.5,0.5 0 0 1 -0.46,0.3a0.5,0.5 0 0 1 0,1a0.5,0.5 0 0 1 0,1l-0.22,0.45a1,1 0 0 1 -0.9,0.55l-2.76,0a1,1 0 0 1 -0.9,-0.55l-0.22,-0.45a0.5,0.5 0 0 1 0,-1a0.5,0.5 0 0 1 0,-1a0.5,0.5 0 0 1 -0.46,-0.3l-0.76,-1.77a2,2 0 0 0 -0.45,-0.62a5.98,5.98 0 0 1 -1.83,-4.31m6,-5a5,5 0 0 0 -3.48,8.59c0.26,0.26 0.52,0.57 0.68,0.94l0.63,1.47l4.34,0l0.63,-1.47c0.17,-0.37 0.42,-0.68 0.68,-0.94a5,5 0 0 0 -3.48,-8.59" fill="#dddddd" id="svg_1"/>
 </g>
</svg>