<?xml version="1.0"?>
<svg width="256" height="256" xmlns="http://www.w3.org/2000/svg" xmlns:svg="http://www.w3.org/2000/svg">

 <g class="layer">
  <title>Layer 1</title>
  <rect fill="none" height="256" id="svg_1" width="256"/>
  <path d="m208,32l-160,0a16,16 0 0 0 -16,16l0,160a16,16 0 0 0 16,16l160,0a16,16 0 0 0 16,-16l0,-160a16,16 0 0 0 -16,-16zm-20.7,155.3a7.7,7.7 0 0 1 -5.6,2.4a8,8 0 0 1 -5.7,-2.4l-107.3,-107.3a8,8 0 1 1 11.3,-11.3l107.3,107.3a8,8 0 0 1 0,11.3z" fill="#f3f0ec" id="svg_2"/>
 </g>
</svg>